{"accessors":[{"bufferView":1,"componentType":5126,"count":4190,"max":[199.56460571289062,28.600000381469727,148.10215759277344],"min":[-199.56460571289062,-2.6000006198883057,-217.58270263671875],"type":"VEC3","byteOffset":0},{"bufferView":1,"byteOffset":50280,"componentType":5126,"count":4190,"max":[1,1,1],"min":[-1,-1,-1],"type":"VEC3"},{"bufferView":2,"componentType":5126,"count":4190,"max":[1,1,1,1],"min":[-1,-1,-1,-1],"type":"VEC4","byteOffset":0},{"bufferView":0,"componentType":5125,"count":14544,"max":[4189],"min":[0],"type":"SCALAR","byteOffset":0},{"bufferView":1,"byteOffset":100560,"componentType":5126,"count":1415,"max":[43.51416015625,13,43.51416015625],"min":[-43.51416015625,-13,-43.51416015625],"type":"VEC3"},{"bufferView":1,"byteOffset":117540,"componentType":5126,"count":1415,"max":[1,1,1],"min":[-1,-1,-1],"type":"VEC3"},{"bufferView":2,"byteOffset":67040,"componentType":5126,"count":1415,"max":[1,1,1,1],"min":[-1,-1,-1,-1],"type":"VEC4"},{"bufferView":0,"byteOffset":58176,"componentType":5125,"count":4608,"max":[1414],"min":[0],"type":"SCALAR"},{"bufferView":1,"byteOffset":134520,"componentType":5126,"count":343,"max":[37.80931091308594,8.593019485473633,37.80931091308594],"min":[-37.80931091308594,-8.567987442016602,-37.80931091308594],"type":"VEC3"},{"bufferView":1,"byteOffset":138636,"componentType":5126,"count":343,"max":[0.6126049160957336,1,0.6126049160957336],"min":[-0.6126049160957336,-1,-0.6126049160957336],"type":"VEC3"},{"bufferView":2,"byteOffset":89680,"componentType":5126,"count":343,"max":[0.999955415725708,0.5713449716567993,0.6076149344444275,1],"min":[-0.9997421503067017,-0.5713456273078918,-0.6076153516769409,1],"type":"VEC4"},{"bufferView":0,"byteOffset":76608,"componentType":5125,"count":1152,"max":[342],"min":[0],"type":"SCALAR"},{"bufferView":1,"byteOffset":142752,"componentType":5126,"count":1415,"max":[43.51416015625,13,43.51416015625],"min":[-43.51416015625,-13,-43.51416015625],"type":"VEC3"},{"bufferView":1,"byteOffset":159732,"componentType":5126,"count":1415,"max":[1,1,1],"min":[-1,-1,-1],"type":"VEC3"},{"bufferView":2,"byteOffset":95168,"componentType":5126,"count":1415,"max":[1,1,1,1],"min":[-1,-1,-1,-1],"type":"VEC4"},{"bufferView":0,"byteOffset":81216,"componentType":5125,"count":4608,"max":[1414],"min":[0],"type":"SCALAR"},{"bufferView":1,"byteOffset":176712,"componentType":5126,"count":343,"max":[37.80931091308594,8.593019485473633,37.80931091308594],"min":[-37.80931091308594,-8.567987442016602,-37.80931091308594],"type":"VEC3"},{"bufferView":1,"byteOffset":180828,"componentType":5126,"count":343,"max":[0.6126049160957336,1,0.6126049160957336],"min":[-0.6126049160957336,-1,-0.6126049160957336],"type":"VEC3"},{"bufferView":2,"byteOffset":117808,"componentType":5126,"count":343,"max":[0.999955415725708,0.5713449716567993,0.6076149344444275,1],"min":[-0.9997421503067017,-0.5713456273078918,-0.6076153516769409,1],"type":"VEC4"},{"bufferView":0,"byteOffset":99648,"componentType":5125,"count":1152,"max":[342],"min":[0],"type":"SCALAR"},{"bufferView":1,"byteOffset":184944,"componentType":5126,"count":1415,"max":[43.51416015625,13,43.51416015625],"min":[-43.51416015625,-13,-43.51416015625],"type":"VEC3"},{"bufferView":1,"byteOffset":201924,"componentType":5126,"count":1415,"max":[1,1,1],"min":[-1,-1,-1],"type":"VEC3"},{"bufferView":2,"byteOffset":123296,"componentType":5126,"count":1415,"max":[1,1,1,1],"min":[-1,-1,-1,-1],"type":"VEC4"},{"bufferView":0,"byteOffset":104256,"componentType":5125,"count":4608,"max":[1414],"min":[0],"type":"SCALAR"},{"bufferView":1,"byteOffset":218904,"componentType":5126,"count":343,"max":[37.80931091308594,8.593019485473633,37.80931091308594],"min":[-37.80931091308594,-8.567987442016602,-37.80931091308594],"type":"VEC3"},{"bufferView":1,"byteOffset":223020,"componentType":5126,"count":343,"max":[0.6126049160957336,1,0.6126049160957336],"min":[-0.6126049160957336,-1,-0.6126049160957336],"type":"VEC3"},{"bufferView":2,"byteOffset":145936,"componentType":5126,"count":343,"max":[0.999955415725708,0.5713449716567993,0.6076149344444275,1],"min":[-0.9997421503067017,-0.5713456273078918,-0.6076153516769409,1],"type":"VEC4"},{"bufferView":0,"byteOffset":122688,"componentType":5125,"count":1152,"max":[342],"min":[0],"type":"SCALAR"},{"bufferView":3,"componentType":5126,"count":109,"max":[2],"min":[0],"type":"SCALAR","byteOffset":0},{"bufferView":4,"componentType":5126,"count":109,"max":[8.351312740775404e-17,0.9999904632568359,8.351312740775404e-17,1],"min":[-8.659375314969342e-17,-0.8474926948547363,-8.659375314969342e-17,-0.49495330452919006],"type":"VEC4","byteOffset":0}],"animations":[{"channels":[{"sampler":0,"target":{"node":5,"path":"rotation"}}],"name":"C4D Animation Take","samplers":[{"input":28,"interpolation":"LINEAR","output":29}]}],"asset":{"extras":{"author":"brysew (https://sketchfab.com/brysew)","license":"CC-BY-4.0 (http://creativecommons.org/licenses/by/4.0/)","source":"https://sketchfab.com/models/3380fa6eb7dd45968dca1229658d6e7e","title":"Just Spinner"},"generator":"Sketchfab-3.18.7","version":"2.0"},"bufferViews":[{"buffer":0,"byteLength":127296,"byteOffset":0,"name":"floatBufferViews","target":34963},{"buffer":0,"byteLength":227136,"byteOffset":127296,"byteStride":12,"name":"floatBufferViews","target":34962},{"buffer":0,"byteLength":151424,"byteOffset":354432,"byteStride":16,"name":"floatBufferViews","target":34962},{"buffer":0,"byteLength":436,"byteOffset":505856,"name":"floatBufferViews"},{"buffer":0,"byteLength":1744,"byteOffset":506292,"byteStride":16,"name":"floatBufferViews"}],"buffers":[{"byteLength":508036,"uri":"data:application/octet-stream;base64,"}],"extensionsRequired":["KHR_materials_pbrSpecularGlossiness"],"extensionsUsed":["KHR_materials_pbrSpecularGlossiness"],"materials":[{"doubleSided":true,"extensions":{"KHR_materials_pbrSpecularGlossiness":{"diffuseFactor":[0.0027317429,0.4793201831,0.8879231179,1],"glossinessFactor":0.053182959,"specularFactor":[0.05,0.05,0.05]}},"name":"Plastic","emissiveFactor":[0,0,0],"alphaMode":"OPAQUE"},{"doubleSided":true,"extensions":{"KHR_materials_pbrSpecularGlossiness":{"diffuseFactor":[0.2158605001,0.2158605001,0.2158605001,1],"glossinessFactor":0.9,"specularFactor":[0.32,0.32,0.32]}},"name":"Metal_-_Chrome","emissiveFactor":[0,0,0],"alphaMode":"OPAQUE"},{"doubleSided":true,"extensions":{"KHR_materials_pbrSpecularGlossiness":{"diffuseFactor":[0.0072219218,0.0072219218,0.0072219218,1],"glossinessFactor":0.5,"specularFactor":[0,0,0]}},"name":"Rubber","emissiveFactor":[0,0,0],"alphaMode":"OPAQUE"}],"meshes":[{"name":"Disc_Plastic_0","primitives":[{"attributes":{"NORMAL":1,"POSITION":0,"TANGENT":2},"indices":3,"material":0,"mode":4}]},{"name":"Cylinder_3_Metal - Chrome_0","primitives":[{"attributes":{"NORMAL":5,"POSITION":4,"TANGENT":6},"indices":7,"material":1,"mode":4}]},{"name":"Cylinder_3_Rubber_0","primitives":[{"attributes":{"NORMAL":9,"POSITION":8,"TANGENT":10},"indices":11,"material":2,"mode":4}]},{"name":"Cylinder_2_Metal - Chrome_0","primitives":[{"attributes":{"NORMAL":13,"POSITION":12,"TANGENT":14},"indices":15,"material":1,"mode":4}]},{"name":"Cylinder_2_Rubber_0","primitives":[{"attributes":{"NORMAL":17,"POSITION":16,"TANGENT":18},"indices":19,"material":2,"mode":4}]},{"name":"Cylinder_1_Metal - Chrome_0","primitives":[{"attributes":{"NORMAL":21,"POSITION":20,"TANGENT":22},"indices":23,"material":1,"mode":4}]},{"name":"Cylinder_1_Rubber_0","primitives":[{"attributes":{"NORMAL":25,"POSITION":24,"TANGENT":26},"indices":27,"material":2,"mode":4}]}],"nodes":[{"children":[1],"name":"RootNode (gltf orientation matrix)","rotation":[-0.7071067811865475,0,0,0.7071067811865476],"translation":[0,0,0],"scale":[1,1,1]},{"children":[2],"name":"RootNode (model correction matrix)"},{"children":[3],"matrix":[1,0,0,0,0,0,1,0,0,-1,0,0,0,0,0,1],"name":"8b5e6c62aeea48e09eba03a1c95d9a9f.fbx"},{"children":[4],"name":""},{"children":[5],"name":"RootNode"},{"children":[6,8,11,14],"name":"_","translation":[1.0658141036401503e-14,9.325501441955566,7.105427357601002e-15],"rotation":[0,0,0,1],"scale":[1,1,1]},{"children":[7],"name":"Disc","translation":[-1.0658141036401503e-14,-9.75,-7.993605777301127e-15],"rotation":[0,0,0,1],"scale":[1,1,1]},{"mesh":0,"name":"Disc_Plastic_0"},{"children":[9,10],"name":"Cylinder_3","translation":[-1.4210854715202004e-14,3.25,-141],"rotation":[0,0,0,1],"scale":[1,1,1]},{"mesh":1,"name":"Cylinder_3_Metal - Chrome_0"},{"mesh":2,"name":"Cylinder_3_Rubber_0"},{"children":[12,13],"name":"Cylinder_2","rotation":[2.2412592700383518e-17,0.8660253882408142,-2.2412592700383518e-17,-0.5],"translation":[122.10958099365234,3.25,70.5],"scale":[1,1,1]},{"mesh":3,"name":"Cylinder_2_Metal - Chrome_0"},{"mesh":4,"name":"Cylinder_2_Rubber_0"},{"children":[15,16],"name":"Cylinder_1","rotation":[8.364493367528069e-17,0.8660253882408142,-8.364493367528069e-17,0.5],"translation":[-122.10958099365234,3.25,70.5],"scale":[1,1,1]},{"mesh":5,"name":"Cylinder_1_Metal - Chrome_0"},{"mesh":6,"name":"Cylinder_1_Rubber_0"}],"scene":0,"scenes":[{"name":"OSG_Scene","nodes":[0]}]}
